<?xml version="1.0" encoding="iso-8859-1"?>
<!-- Generator: Adobe Illustrator 19.0.0, SVG Export Plug-In . SVG Version: 6.00 Build 0)  -->
<svg version="1.1" id="Layer_1" xmlns="http://www.w3.org/2000/svg" xmlns:xlink="http://www.w3.org/1999/xlink" x="0px" y="0px"
	 viewBox="0 0 512 512" style="enable-background:new 0 0 512 512;" xml:space="preserve">
<g>
	<g>
		<g>
			<path d="M256,0C114.833,0,0,114.844,0,256s114.833,256,256,256s256-114.844,256-256S397.167,0,256,0z M256,490.667
				C126.604,490.667,21.333,385.396,21.333,256S126.604,21.333,256,21.333S490.667,126.604,490.667,256S385.396,490.667,256,490.667
				z"/>
			<path d="M330.667,149.333H288c-5.896,0-10.667,4.771-10.667,10.667v49.031l-90.229-58c-3.292-2.135-7.5-2.25-10.875-0.396
				c-3.438,1.875-5.563,5.458-5.563,9.365v192c0,3.906,2.125,7.49,5.563,9.365c1.583,0.865,3.354,1.302,5.104,1.302
				c2,0,4.021-0.563,5.771-1.698l90.229-58V352c0,5.896,4.771,10.667,10.667,10.667h42.667c5.896,0,10.667-4.771,10.667-10.667V160
				C341.333,154.104,336.563,149.333,330.667,149.333z M320,341.333h-21.333v-57.906c0-3.906-2.125-7.49-5.563-9.365
				c-3.396-1.865-7.604-1.729-10.875,0.396l-90.229,58V179.542l90.229,58c3.271,2.135,7.479,2.24,10.875,0.396
				c3.438-1.875,5.563-5.458,5.563-9.365v-57.906H320V341.333z"/>
		</g>
	</g>
</g>
<g>
</g>
<g>
</g>
<g>
</g>
<g>
</g>
<g>
</g>
<g>
</g>
<g>
</g>
<g>
</g>
<g>
</g>
<g>
</g>
<g>
</g>
<g>
</g>
<g>
</g>
<g>
</g>
<g>
</g>
</svg>
